# xmcd CD database file
#
# Track frame offsets:
#	150
#	13562
#	27065
#	41442
#	56385
#	70262
#	85895
#	97815
#	111752
#	124922
#	138592
#	152377
#	166910
#	182227
#	193960
#	207832
#	223247
#	235662
#	248310
#	261900
#
# Disc length: 3680 seconds
#
# Revision: 3
# Processed by: cddbd v1.5.1PL0 Copyright (c) Steve Scherf et al.
# Submitted via: CDex 1.50
#
DISCID=0a0e5e14
DTITLE=Kenny Baker - Louis Armstrong Vol. 14
DYEAR=1900
DGENRE=Jazz -> General Jazz
TTITLE0=Whatya Gonna Do?
TTITLE1=No Variety Blues
TTITLE2=Joseph And His Brudders
TTITLE3=Back O'Town Blues
TTITLE4=I Want A Little Girl
TTITLE5=Sugar
TTITLE6=Blues For Yesterday
TTITLE7=Blues In The South
TTITLE8=Endie
TTITLE9=The Blues Are Brewin'
TTITLE10=Do You Know What It Means
TTITLE11=Where The Blues Were Born
TTITLE12=Mahagony Hall Stomp
TTITLE13=I Wander I Wander
TTITLE14=I Believe
TTITLE15=Why Doubt My Love?
TTITLE16=It Takes Time
TTITLE17=You Don't Learn That In School
TTITLE18=Jack Armstrong Blues
TTITLE19=Rockin' Chair
EXTD=
EXTT0=
EXTT1=
EXTT2=
EXTT3=
EXTT4=
EXTT5=
EXTT6=
EXTT7=
EXTT8=
EXTT9=
EXTT10=
EXTT11=
EXTT12=
EXTT13=
EXTT14=
EXTT15=
EXTT16=
EXTT17=
EXTT18=
EXTT19=
PLAYORDER=
